# xmcd CD database file
#
# Track frame offsets:
#	150
#	19833
#	39357
#	60480
#	81186
#	93670
#	110676
#	127604
#	147727
#	167327
#	180925
#	201721
#	220751
#	238715
#	258258
#
# Disc length: 3731 seconds
#
# Revision: 0
# Processed by: cddbd v1.5.2PL0 Copyright (c) Steve Scherf et al.
# Submitted via: CDex 1.70beta2
#
DISCID=cc0e910f
DTITLE=Various Artist - Los Grandes Templos De La Salsa Cd 2 Son Cubansimos
DYEAR=1900
DGENRE=Salsa
TTITLE0=Carlos Manuel - Salsita
TTITLE1=Andy Montáñez - Vocero Del Corazón
TTITLE2=Miosotis - Mala
TTITLE3=Tito Rojas - Definitivamente
TTITLE4=Luis Damon - Se Nos Acabó El Amor
TTITLE5=Mambo - Me La Llevo Yo
TTITLE6=El Bonche - Menea
TTITLE7=Los Sabrosos - Si Te Vas
TTITLE8=La Linea - Cuando Acaba El Placer
TTITLE9=Ray López - Como Lo Hice Yo
TTITLE10=Many Manuel - Ya Te Olvidé
TTITLE11=Grupo Manía - Ya Estás Para Amar
TTITLE12=Caña Brava - La Cintura
TTITLE13=Willman Marcano - Ven Que Te Quiero
TTITLE14=Oro Duro - Hasta Que Me Olvides
EXTD=
EXTT0=
EXTT1=
EXTT2=
EXTT3=
EXTT4=
EXTT5=
EXTT6=
EXTT7=
EXTT8=
EXTT9=
EXTT10=
EXTT11=
EXTT12=
EXTT13=
EXTT14=
PLAYORDER=
